<svg width="16" height="16" viewBox="0 0 16 16" fill="none" xmlns="http://www.w3.org/2000/svg">
<path d="M3.68339 13.9997C3.38339 13.9997 3.11672 13.908 2.88339 13.7247C2.65006 13.5413 2.48895 13.3052 2.40006 13.0163L0.700057 6.84967C0.644502 6.63856 0.680613 6.44412 0.808391 6.26634C0.936168 6.08856 1.11117 5.99967 1.33339 5.99967H4.50006L7.43339 1.63301C7.48895 1.54412 7.56672 1.4719 7.66672 1.41634C7.76672 1.36079 7.87228 1.33301 7.98339 1.33301C8.0945 1.33301 8.20006 1.36079 8.30006 1.41634C8.40006 1.4719 8.47784 1.54412 8.53339 1.63301L11.4667 5.99967H14.6667C14.8889 5.99967 15.0639 6.08856 15.1917 6.26634C15.3195 6.44412 15.3556 6.63856 15.3001 6.84967L13.6001 13.0163C13.5112 13.3052 13.3501 13.5413 13.1167 13.7247C12.8834 13.908 12.6167 13.9997 12.3167 13.9997H3.68339ZM3.66672 12.6663H12.3334L13.8001 7.33301H2.20006L3.66672 12.6663ZM8.00006 11.333C8.36672 11.333 8.68061 11.2025 8.94172 10.9413C9.20284 10.6802 9.33339 10.3663 9.33339 9.99967C9.33339 9.63301 9.20284 9.31912 8.94172 9.05801C8.68061 8.7969 8.36672 8.66634 8.00006 8.66634C7.63339 8.66634 7.3195 8.7969 7.05839 9.05801C6.79728 9.31912 6.66672 9.63301 6.66672 9.99967C6.66672 10.3663 6.79728 10.6802 7.05839 10.9413C7.3195 11.2025 7.63339 11.333 8.00006 11.333ZM6.11672 5.99967H9.86672L7.98339 3.19967L6.11672 5.99967Z" fill="white"/>
</svg>
