<svg width="16" height="16" viewBox="0 0 16 16" fill="none" xmlns="http://www.w3.org/2000/svg">
<path d="M12.9999 8C12.9999 7.86667 12.9999 7.73333 12.9999 7.66667L14.7333 6.4L14.6666 5.93333C14.6666 5.86667 14.5333 5.26667 14.0666 4.46667C13.5999 3.66667 13.1999 3.33333 13.1333 3.26667L12.7999 3L10.7999 3.86667C10.5999 3.73333 10.3999 3.6 10.1999 3.53333L9.93327 1.33333L9.53327 1.2C9.4666 1.2 8.8666 1 7.99994 1C7.13327 1 6.53327 1.2 6.4666 1.2L6.0666 1.33333L5.79993 3.53333C5.59994 3.6 5.39994 3.73333 5.19993 3.86667L3.19993 3L2.8666 3.26667C2.79993 3.33333 2.39994 3.73333 1.93327 4.53333C1.53327 5.26667 1.33327 5.86667 1.33327 5.93333L1.2666 6.33333L2.99993 7.6C2.99993 7.73333 2.99993 7.86667 2.99993 7.93333C2.99993 8 2.99993 8.2 2.99993 8.26667L1.2666 9.53333L1.33327 10.0667C1.33327 10.1333 1.4666 10.7333 1.93327 11.5333C2.39994 12.2667 2.79993 12.7333 2.8666 12.7333L3.19993 13L5.19993 12.1333C5.39994 12.2667 5.59994 12.4 5.79993 12.4667L6.0666 14.6667L6.4666 14.8C6.53327 14.8 7.13327 15 7.99994 15C8.8666 15 9.4666 14.8 9.53327 14.8L9.93327 14.6667L10.1999 12.5333C10.3999 12.4 10.5999 12.3333 10.7999 12.2L12.7999 13.0667L13.1333 12.8C13.1999 12.7333 13.6666 12.3333 14.0666 11.6C14.4666 10.8667 14.6666 10.2667 14.6666 10.1333L14.7333 9.73333L12.9999 8.46667C12.9999 8.26667 12.9999 8.13333 12.9999 8ZM13.1999 10.2C13.1333 10.4 12.9999 10.6 12.8666 10.8667C12.7333 11.1333 12.5999 11.3333 12.4666 11.4667L10.5999 10.6667L10.2666 10.9333C9.99994 11.2 9.6666 11.3333 9.2666 11.4667L8.8666 11.6L8.6666 13.6667C8.2666 13.7333 7.59994 13.7333 7.19994 13.6667L6.99994 11.6L6.6666 11.4C6.33327 11.2667 5.99994 11.0667 5.6666 10.8667L5.33327 10.6L3.4666 11.4C3.33327 11.2667 3.19993 11.0667 3.0666 10.8C2.93327 10.5333 2.79993 10.3333 2.73327 10.1333L4.39993 8.93333L4.33327 8.53333C4.33327 8.33333 4.2666 8.13333 4.2666 8C4.2666 7.86667 4.2666 7.6 4.33327 7.46667L4.39993 7.06667L2.79993 5.8C2.8666 5.6 2.99993 5.4 3.13327 5.13333C3.2666 4.86667 3.39994 4.66667 3.53327 4.53333L5.39994 5.33333L5.73327 5.06667C5.99994 4.93333 6.33327 4.73333 6.6666 4.6L7.0666 4.46667L7.2666 2.4C7.6666 2.33333 8.33327 2.33333 8.73327 2.4L8.93327 4.46667L9.33327 4.6C9.6666 4.73333 9.99994 4.93333 10.3333 5.13333L10.6666 5.4L12.5333 4.6C12.6666 4.73333 12.7999 4.93333 12.9333 5.2C13.0666 5.46667 13.1999 5.66667 13.2666 5.86667L11.5999 7.06667L11.6666 7.46667C11.6666 7.66667 11.7333 7.86667 11.7333 8C11.7333 8.13333 11.7333 8.4 11.6666 8.53333L11.5999 8.93333L13.1999 10.2Z" fill="white"/>
<path d="M7.99994 9.33333C8.73631 9.33333 9.33327 8.73638 9.33327 8C9.33327 7.26362 8.73631 6.66667 7.99994 6.66667C7.26356 6.66667 6.6666 7.26362 6.6666 8C6.6666 8.73638 7.26356 9.33333 7.99994 9.33333Z" fill="white"/>
</svg>
