<svg width="17" height="18" viewBox="0 0 17 18" fill="none" xmlns="http://www.w3.org/2000/svg">
<path d="M8.49935 16.6149C4.29893 16.6149 0.884766 13.2007 0.884766 9.00033C0.884766 4.79991 4.29893 1.38574 8.49935 1.38574C12.6998 1.38574 16.1139 4.79991 16.1139 9.00033C16.1139 13.2007 12.6998 16.6149 8.49935 16.6149ZM8.49935 2.44824C4.88685 2.44824 1.94727 5.38783 1.94727 9.00033C1.94727 12.6128 4.88685 15.5524 8.49935 15.5524C12.1118 15.5524 15.0514 12.6128 15.0514 9.00033C15.0514 5.38783 12.1118 2.44824 8.49935 2.44824Z" fill="#667085"/>
<path d="M8.5 10.2399C8.20958 10.2399 7.96875 9.99908 7.96875 9.70866V6.16699C7.96875 5.87658 8.20958 5.63574 8.5 5.63574C8.79042 5.63574 9.03125 5.87658 9.03125 6.16699V9.70866C9.03125 9.99908 8.79042 10.2399 8.5 10.2399Z" fill="#667085"/>
<path d="M8.49935 12.542C8.40727 12.542 8.31518 12.5208 8.23018 12.4854C8.14518 12.4499 8.06727 12.4004 7.99643 12.3366C7.93268 12.2658 7.8831 12.1949 7.84768 12.1029C7.81227 12.0179 7.79102 11.9258 7.79102 11.8337C7.79102 11.7416 7.81227 11.6495 7.84768 11.5645C7.8831 11.4795 7.93268 11.4016 7.99643 11.3308C8.06727 11.267 8.14518 11.2174 8.23018 11.182C8.40018 11.1112 8.59852 11.1112 8.76852 11.182C8.85352 11.2174 8.93143 11.267 9.00227 11.3308C9.06602 11.4016 9.1156 11.4795 9.15102 11.5645C9.18643 11.6495 9.20768 11.7416 9.20768 11.8337C9.20768 11.9258 9.18643 12.0179 9.15102 12.1029C9.1156 12.1949 9.06602 12.2658 9.00227 12.3366C8.93143 12.4004 8.85352 12.4499 8.76852 12.4854C8.68352 12.5208 8.59143 12.542 8.49935 12.542Z" fill="#667085"/>
</svg>
