<svg width="18" height="24" viewBox="0 0 18 24" fill="none" xmlns="http://www.w3.org/2000/svg">
<path d="M14.377 10.652C15.2756 9.49135 15.7811 8.06854 15.7811 6.58963C15.7624 3.07013 13.0105 0.187185 9.50967 0H9.3038V3.61306L9.47227 3.63183C10.9886 3.78153 12.1493 5.05458 12.1493 6.58966C12.1493 8.12474 11.0074 9.39775 9.47227 9.54754L9.3038 9.56626V13.1793H9.80924C10.4458 13.1793 11.363 13.2917 11.9434 13.5537C13.2351 14.1341 14.1711 15.276 14.1711 16.7736C14.1711 18.758 12.505 20.368 10.5206 20.368H5.11035V23.9811H10.5768C14.5643 23.9811 17.8029 20.7424 17.8029 16.755C17.7842 14.2839 16.4925 11.9625 14.3771 10.6521L14.377 10.652Z" fill="white"/>
<path d="M7.86265 9.5662H3.61309V3.61303H7.86265V0H0V23.9998H3.61309V13.1793H7.86265V9.5662Z" fill="white"/>
</svg>
