<svg width="17" height="18" viewBox="0 0 17 18" fill="none" xmlns="http://www.w3.org/2000/svg">
<path d="M9.20768 10.9478H1.41602C1.1256 10.9478 0.884766 10.7069 0.884766 10.4165V5.89735C0.884766 5.67069 1.02643 5.47234 1.23184 5.39442C1.44434 5.31651 1.6781 5.38028 1.81977 5.55028C2.25185 6.06736 2.92477 6.35777 3.5906 6.33652C4.15727 6.32235 4.68142 6.10987 5.07809 5.73445C5.26225 5.57862 5.41101 5.39444 5.52434 5.18902C5.74392 4.8136 5.85018 4.40276 5.8431 3.98485C5.82893 3.33318 5.54562 2.73818 5.06395 2.3061C4.89395 2.15735 4.83727 1.92359 4.91518 1.71817C4.9931 1.51275 5.19144 1.37109 5.41103 1.37109H10.6243C10.9148 1.37109 11.1556 1.61193 11.1556 1.90234V8.98568C11.1556 10.0765 10.2843 10.9478 9.20768 10.9478ZM1.94727 9.88527H9.20768C9.69643 9.88527 10.0931 9.48861 10.0931 8.99986V2.44777H6.50893C6.75685 2.90819 6.89143 3.42528 6.9056 3.96362C6.91977 4.57987 6.76392 5.18902 6.45226 5.72027C6.28226 6.02485 6.04851 6.31528 5.79351 6.52778C5.22684 7.06611 4.44767 7.38486 3.61892 7.40611C3.03101 7.42736 2.45019 7.27861 1.95436 7.00944V9.88527H1.94727Z" fill="#667085"/>
<path d="M13.4577 15.1982H12.7493C12.4589 15.1982 12.2181 14.9574 12.2181 14.667C12.2181 14.1782 11.8214 13.7816 11.3327 13.7816C10.8439 13.7816 10.4473 14.1782 10.4473 14.667C10.4473 14.9574 10.2064 15.1982 9.91602 15.1982H7.08268C6.79227 15.1982 6.55143 14.9574 6.55143 14.667C6.55143 14.1782 6.15477 13.7816 5.66602 13.7816C5.17727 13.7816 4.7806 14.1782 4.7806 14.667C4.7806 14.9574 4.53977 15.1982 4.24935 15.1982H3.54102C2.07477 15.1982 0.884766 14.0082 0.884766 12.542V10.417C0.884766 10.1266 1.1256 9.88574 1.41602 9.88574H9.20768C9.69643 9.88574 10.0931 9.48908 10.0931 9.00033V4.04199C10.0931 3.75158 10.3339 3.51074 10.6243 3.51074H11.9277C12.629 3.51074 13.2735 3.88617 13.6206 4.49534L14.8319 6.61325C14.9239 6.77616 14.9239 6.98158 14.8319 7.1445C14.7398 7.30741 14.5627 7.40658 14.3714 7.40658H13.4577C13.3585 7.40658 13.2806 7.48449 13.2806 7.58366V9.70866C13.2806 9.80783 13.3585 9.88574 13.4577 9.88574H15.5827C15.8731 9.88574 16.1139 10.1266 16.1139 10.417V12.542C16.1139 14.0082 14.9239 15.1982 13.4577 15.1982ZM13.2098 14.1357H13.4577C14.336 14.1357 15.0514 13.4203 15.0514 12.542V10.9482H13.4577C12.7777 10.9482 12.2181 10.3887 12.2181 9.70866V7.58366C12.2181 6.90366 12.7706 6.34408 13.4577 6.34408L12.6998 5.0195C12.5439 4.74325 12.2465 4.57324 11.9277 4.57324H11.1556V9.00033C11.1556 10.077 10.2843 10.9482 9.20768 10.9482H1.94727V12.542C1.94727 13.4203 2.66268 14.1357 3.54102 14.1357H3.78892C4.02267 13.3212 4.77352 12.7191 5.66602 12.7191C6.55852 12.7191 7.30937 13.3212 7.54312 14.1357H9.46267C9.69642 13.3212 10.4473 12.7191 11.3398 12.7191C12.2323 12.7191 12.976 13.3212 13.2098 14.1357Z" fill="#667085"/>
<path d="M5.66667 16.6146C4.59 16.6146 3.71875 15.7433 3.71875 14.6667C3.71875 13.59 4.59 12.7188 5.66667 12.7188C6.74333 12.7188 7.61458 13.59 7.61458 14.6667C7.61458 15.7433 6.74333 16.6146 5.66667 16.6146ZM5.66667 13.7813C5.17792 13.7813 4.78125 14.1779 4.78125 14.6667C4.78125 15.1554 5.17792 15.5521 5.66667 15.5521C6.15542 15.5521 6.55208 15.1554 6.55208 14.6667C6.55208 14.1779 6.15542 13.7813 5.66667 13.7813Z" fill="#667085"/>
<path d="M11.3327 16.6146C10.256 16.6146 9.38477 15.7433 9.38477 14.6667C9.38477 13.59 10.256 12.7188 11.3327 12.7188C12.4093 12.7188 13.2806 13.59 13.2806 14.6667C13.2806 15.7433 12.4093 16.6146 11.3327 16.6146ZM11.3327 13.7813C10.8439 13.7813 10.4473 14.1779 10.4473 14.6667C10.4473 15.1554 10.8439 15.5521 11.3327 15.5521C11.8214 15.5521 12.2181 15.1554 12.2181 14.6667C12.2181 14.1779 11.8214 13.7813 11.3327 13.7813Z" fill="#667085"/>
<path d="M15.5833 10.9479H13.4583C12.7783 10.9479 12.2188 10.3883 12.2188 9.70833V7.58333C12.2188 6.90333 12.7783 6.34375 13.4583 6.34375H14.3721C14.5633 6.34375 14.7404 6.44292 14.8325 6.61292L16.0438 8.73792C16.0863 8.81584 16.1146 8.90792 16.1146 9V10.4167C16.1146 10.7071 15.8738 10.9479 15.5833 10.9479ZM13.4583 7.40625C13.3592 7.40625 13.2813 7.48417 13.2813 7.58333V9.70833C13.2813 9.8075 13.3592 9.88542 13.4583 9.88542H15.0521V9.14168L14.0604 7.40625H13.4583Z" fill="#667085"/>
<path d="M3.54232 7.40592C1.68648 7.40592 0.177734 5.89717 0.177734 4.04134C0.177734 3.00717 0.638172 2.05091 1.43859 1.41341C2.03359 0.938826 2.7844 0.676758 3.54232 0.676758C5.39815 0.676758 6.9069 2.18551 6.9069 4.04134C6.9069 5.00467 6.48899 5.92551 5.7594 6.56301C5.14315 7.10842 4.3569 7.40592 3.54232 7.40592ZM3.54232 1.73926C3.01815 1.73926 2.5223 1.91632 2.10438 2.24924C1.55896 2.68132 1.24023 3.34009 1.24023 4.04134C1.24023 5.30926 2.2744 6.34342 3.54232 6.34342C4.09482 6.34342 4.63317 6.13801 5.06525 5.76968C5.56108 5.33051 5.8444 4.70717 5.8444 4.04134C5.8444 2.77342 4.81023 1.73926 3.54232 1.73926Z" fill="#667085"/>
<path d="M2.8331 5.28125C2.65601 5.28125 2.47892 5.18918 2.37975 5.02626C2.231 4.77126 2.30893 4.44541 2.56393 4.29666L3.19435 3.92126V3.15625C3.19435 2.86583 3.43519 2.625 3.7256 2.625C4.01602 2.625 4.25685 2.86583 4.25685 3.15625V4.21875C4.25685 4.40292 4.1577 4.58001 4.00186 4.67209L3.11645 5.20334C3.01728 5.26001 2.92518 5.28125 2.8331 5.28125Z" fill="#667085"/>
</svg>
