<svg width="17" height="18" viewBox="0 0 17 18" fill="none" xmlns="http://www.w3.org/2000/svg">
<path d="M8.49906 10.0369C7.26561 10.0369 6.25781 9.03454 6.25781 7.79569C6.25781 6.55852 7.26392 5.56152 8.49906 5.56152C9.73251 5.56152 10.7403 6.56392 10.7403 7.80277C10.7403 9.03994 9.7342 10.0369 8.49906 10.0369ZM8.49906 5.62402C7.30346 5.62402 6.32031 6.59734 6.32031 7.80277C6.32031 9.00683 7.295 9.98152 8.49906 9.98152C9.70312 9.98152 10.6778 9.00683 10.6778 7.80277C10.6778 6.59734 9.69467 5.62402 8.49906 5.62402Z" fill="#101828" stroke="#2B2D33"/>
<path d="M2.53376 6.51198L2.53389 6.51142C3.25618 3.32942 6.03028 1.88574 8.49921 1.88574H8.49921H8.49922H8.49922H8.49923H8.49923H8.49923H8.49924H8.49924H8.49925H8.49925H8.49925H8.49926H8.49926H8.49927H8.49927H8.49928H8.49928H8.49929H8.49929H8.49929H8.4993H8.4993H8.49931H8.49931H8.49932H8.49932H8.49933H8.49933H8.49934H8.49935H8.49935H8.49936H8.49936H8.49937H8.49938H8.49938H8.49939H8.4994H8.4994H8.49941H8.49941H8.49941H8.49942H8.49942H8.49943H8.49943H8.49943H8.49944H8.49944H8.49945H8.49945H8.49946H8.49946H8.49946H8.49947H8.49947H8.49948H8.49948H8.49949H8.49949H8.4995H8.4995H8.49951H8.49951H8.49952H8.49952H8.49953H8.49953H8.49954H8.49954H8.49955H8.49956H8.49956H8.49957H8.49957H8.49958H8.49958H8.49959H8.4996H8.4996H8.49961H8.49961H8.49962H8.49963H8.49963H8.49964H8.49964H8.49965H8.49966H8.49966H8.49967H8.49968H8.49968H8.49969H8.4997H8.49971H8.49971H8.49972H8.49973H8.49973H8.49974H8.49975H8.49976H8.49976H8.49977H8.49978H8.49979H8.49979H8.4998H8.49981H8.49982H8.49983H8.49984H8.49984H8.49985H8.49986H8.49987H8.49988H8.49989H8.49989H8.4999H8.49991H8.49992H8.49993H8.49994H8.49995H8.49996H8.49997H8.49998H8.49999H8.5H8.50001H8.50001H8.50002H8.50003H8.50004H8.50005H8.50006H8.50007H8.50008H8.5001H8.50011H8.50012H8.50013H8.50014H8.50015H8.50016H8.50017H8.50018H8.50019H8.5002H8.50021H8.50023H8.50024H8.50025H8.50026H8.50027H8.50028H8.5003H8.50031H8.50032H8.50033H8.50034H8.50036H8.50037H8.50038H8.50039H8.50041H8.50042H8.50043H8.50044H8.50046H8.50047H8.50048H8.5005H8.50051H8.50052H8.50054H8.50055H8.50056H8.50058H8.50059H8.50061H8.50062H8.50063H8.50065H8.50066H8.50068H8.50069H8.50071H8.50072H8.50074H8.50075H8.50077H8.50078H8.5008H8.50081H8.50083H8.50084H8.50086H8.50087H8.50089H8.50091H8.50092H8.50094H8.50096H8.50097H8.50099H8.501H8.50102H8.50104H8.50106H8.50107H8.50109H8.50111H8.50112H8.50114H8.50116H8.50118H8.50119H8.50121H8.50123H8.50125H8.50127H8.50128H8.5013H8.50132H8.50134H8.50136H8.50138H8.5014H8.50141H8.50143H8.50145H8.50147H8.50149H8.50151H8.50153H8.50155H8.50157H8.50159H8.50161H8.50163H8.50165H8.50167H8.50169H8.50171H8.50173H8.50176H8.50178H8.5018H8.50182H8.50184H8.50186H8.50188H8.5019H8.50193H8.50195H8.50197H8.50199H8.50202H8.50204H8.50206H8.50208H8.50211H8.50213H8.50215H8.50217H8.5022H8.50222H8.50224H8.50227H8.50229H8.50232H8.50234H8.50236H8.50239H8.50241H8.50244H8.50246H8.50249H8.50251H8.50254H8.50256H8.50259H8.50261H8.50264H8.50266H8.50269H8.50272H8.50274H8.50277H8.50279H8.50282H8.50285H8.50287H8.5029H8.50293H8.50295H8.50298H8.50301H8.50304H8.50306H8.50309H8.50312H8.50315H8.50318H8.5032H8.50323H8.50326H8.50329H8.50332H8.50335H8.50338H8.50341H8.50344H8.50346H8.50349H8.50352H8.50355H8.50358H8.50361H8.50364H8.50367H8.50371H8.50374H8.50377H8.5038H8.50383H8.50386H8.50389H8.50392H8.50396H8.50399H8.50402H8.50405H8.50408H8.50412H8.50415H8.50418H8.50421H8.50425H8.50428H8.50431H8.50435H8.50438H8.50441H8.50445H8.50448H8.50452H8.50455H8.50458H8.50462H8.50465H8.50469H8.50472H8.50476H8.50479H8.50483H8.50487H8.5049H8.50494H8.50497H8.50501H8.50505H8.50508H8.50512H8.50516H8.50519H8.50523H8.50527H8.50531H8.50534H8.50538H8.50542H8.50546H8.5055H8.50553H8.50557H8.50561H8.50565H8.50569H8.50573H8.50577H8.50581H8.50585H8.50589H8.50593H8.50597H8.50601H8.50605H8.50609H8.50613H8.50617H8.50621H8.50625H8.50629C10.9749 1.88574 13.7491 3.32908 14.4715 6.51821C15.2745 10.0658 13.1384 13.095 11.0784 15.0783C10.3519 15.7732 9.42137 16.122 8.49921 16.122C7.57708 16.122 6.64656 15.7733 5.92008 15.0784C3.86029 13.0953 1.72424 10.0594 2.53376 6.51198ZM14.4128 6.52471L14.4124 6.52271C13.6352 3.13411 10.7092 1.94824 8.49921 1.94824C6.2889 1.94824 3.3698 3.13451 2.60007 6.52326C1.77229 10.1345 4.04911 13.1843 5.97094 15.0274C7.38995 16.3965 9.61574 16.3965 11.0347 15.0272C12.9493 13.1843 15.2254 10.1352 14.4128 6.52471Z" fill="#101828" stroke="#2B2D33"/>
</svg>
