<svg width="17" height="18" viewBox="0 0 17 18" fill="none" xmlns="http://www.w3.org/2000/svg">
<path d="M8.49914 9.92078C8.40705 9.92078 8.31497 9.89954 8.22997 9.84996L1.97539 6.23039C1.72039 6.08164 1.63538 5.75578 1.78413 5.50078C1.93288 5.24578 2.25873 5.16077 2.50664 5.30952L8.49205 8.77328L14.4421 5.33079C14.6971 5.18204 15.0229 5.27414 15.1646 5.52205C15.3133 5.77705 15.2212 6.10286 14.9733 6.25161L8.76122 9.84996C8.6833 9.89246 8.59122 9.92078 8.49914 9.92078Z" fill="#667085"/>
<path d="M8.5 16.3387C8.20958 16.3387 7.96875 16.0978 7.96875 15.8074V9.38281C7.96875 9.0924 8.20958 8.85156 8.5 8.85156C8.79042 8.85156 9.03125 9.0924 9.03125 9.38281V15.8074C9.03125 16.0978 8.79042 16.3387 8.5 16.3387Z" fill="#667085"/>
<path d="M8.49971 16.6146C7.87638 16.6146 7.25304 16.48 6.77138 16.2038L2.98888 14.1071C1.96179 13.5405 1.1543 12.1734 1.1543 10.9975V6.98834C1.1543 5.81251 1.96179 4.45254 2.98888 3.87879L6.77138 1.78211C7.73471 1.23669 9.25054 1.23669 10.221 1.78211L14.0035 3.87879C15.0305 4.44546 15.838 5.81251 15.838 6.98834V10.9975C15.838 11.0684 15.838 11.125 15.8239 11.1958C15.7885 11.38 15.6539 11.5358 15.4768 11.5925C15.2997 11.6563 15.1014 11.6138 14.9526 11.4934C14.138 10.785 12.8772 10.7567 12.0201 11.4438C11.4747 11.8759 11.156 12.5346 11.156 13.2358C11.156 13.6538 11.2693 14.0646 11.4889 14.4188C11.5455 14.518 11.6022 14.5959 11.666 14.6738C11.7722 14.7942 11.8147 14.9571 11.7864 15.1129C11.7581 15.2688 11.6589 15.4034 11.5172 15.4813L10.221 16.1967C9.73929 16.48 9.12304 16.6146 8.49971 16.6146ZM8.49971 2.44794C8.06054 2.44794 7.61428 2.54003 7.29554 2.71711L3.51304 4.8138C2.82595 5.18921 2.23096 6.20918 2.23096 6.98834V10.9975C2.23096 11.7767 2.83304 12.7967 3.51304 13.1721L7.29554 15.2688C7.94012 15.63 9.06637 15.63 9.71095 15.2688L10.5043 14.8296C10.2422 14.355 10.1006 13.8025 10.1006 13.2358C10.1006 12.2017 10.561 11.2455 11.3614 10.608C12.3247 9.83587 13.706 9.67293 14.7826 10.1333V6.9742C14.7826 6.19504 14.1805 5.17503 13.5005 4.79962L9.71805 2.70293C9.38513 2.54002 8.93888 2.44794 8.49971 2.44794Z" fill="#667085"/>
<path d="M13.4583 16.6149C12.2825 16.6149 11.1775 15.9916 10.5825 14.9787C10.2638 14.4687 10.0938 13.8666 10.0938 13.2503C10.0938 12.2162 10.5542 11.2599 11.3546 10.6224C11.9496 10.1478 12.7004 9.88574 13.4583 9.88574C15.3142 9.88574 16.8229 11.3945 16.8229 13.2503C16.8229 13.8666 16.6529 14.4687 16.3342 14.9858C16.1642 15.2833 15.9304 15.5524 15.6612 15.7791C15.0733 16.3174 14.2871 16.6149 13.4583 16.6149ZM13.4583 10.9482C12.9342 10.9482 12.4383 11.1253 12.0204 11.4582C11.475 11.8903 11.1562 12.5491 11.1562 13.2503C11.1562 13.6682 11.2696 14.0791 11.4892 14.4332C11.9071 15.1416 12.6437 15.5524 13.4583 15.5524C14.0179 15.5524 14.5563 15.347 14.9671 14.9787C15.1513 14.8228 15.3071 14.6387 15.4204 14.4403C15.6471 14.0791 15.7604 13.6682 15.7604 13.2503C15.7604 11.9824 14.7262 10.9482 13.4583 10.9482Z" fill="#667085"/>
<path d="M14.2155 14.5182C14.0809 14.5182 13.9463 14.4686 13.8401 14.3624L12.3455 12.8678C12.1401 12.6624 12.1401 12.3224 12.3455 12.117C12.5509 11.9115 12.8909 11.9115 13.0963 12.117L14.5909 13.6115C14.7963 13.8169 14.7963 14.1569 14.5909 14.3624C14.4846 14.4686 14.3501 14.5182 14.2155 14.5182Z" fill="#667085"/>
<path d="M12.7014 14.5387C12.5668 14.5387 12.4322 14.4891 12.3259 14.3829C12.1205 14.1774 12.1205 13.8375 12.3259 13.632L13.8205 12.1375C14.0259 11.932 14.3659 11.932 14.5714 12.1375C14.7768 12.3429 14.7768 12.6829 14.5714 12.8883L13.0768 14.3829C12.9705 14.4891 12.8359 14.5387 12.7014 14.5387Z" fill="#667085"/>
</svg>
