<svg width="20" height="20" viewBox="0 0 20 20" fill="none" xmlns="http://www.w3.org/2000/svg">
<path d="M11.042 13.1253C11.042 13.7006 10.5756 14.167 10.0003 14.167C9.42503 14.167 8.95866 13.7006 8.95866 13.1253C8.95866 12.55 9.42503 12.0837 10.0003 12.0837C10.5756 12.0837 11.042 12.55 11.042 13.1253Z" fill="#AAABAD"/>
<path d="M8.21444 6.47636C7.75301 6.88652 7.51497 7.43766 7.50033 8.1298H8.98897C9.00728 7.81852 9.11348 7.57133 9.30758 7.38822C9.50167 7.20146 9.75619 7.10807 10.0711 7.10807C10.3824 7.10807 10.6351 7.1923 10.8292 7.36076C11.0196 7.52922 11.1148 7.74528 11.1148 8.00895C11.1148 8.26896 11.0489 8.4832 10.9171 8.65165C10.7889 8.82011 10.5472 9.01054 10.192 9.22294C9.80746 9.44999 9.53829 9.69718 9.38448 9.96452C9.22701 10.2465 9.16659 10.5999 9.20321 11.0247L9.21419 11.3433H10.6699V11.0522C10.6699 10.7812 10.734 10.5614 10.8621 10.393C10.9903 10.2245 11.2375 10.0341 11.6037 9.8217C12.3874 9.36027 12.7793 8.73954 12.7793 7.95951C12.7793 7.32963 12.5412 6.81877 12.0651 6.42692C11.5817 6.03141 10.95 5.83366 10.17 5.83366C9.34237 5.83366 8.69051 6.04789 8.21444 6.47636Z" fill="#AAABAD"/>
<path fill-rule="evenodd" clip-rule="evenodd" d="M1.66699 10.0003C1.66699 5.39795 5.39795 1.66699 10.0003 1.66699C14.6027 1.66699 18.3337 5.39795 18.3337 10.0003C18.3337 14.6027 14.6027 18.3337 10.0003 18.3337C5.39795 18.3337 1.66699 14.6027 1.66699 10.0003ZM10.0003 3.33366C6.31843 3.33366 3.33366 6.31843 3.33366 10.0003C3.33366 13.6822 6.31843 16.667 10.0003 16.667C13.6822 16.667 16.667 13.6822 16.667 10.0003C16.667 6.31843 13.6822 3.33366 10.0003 3.33366Z" fill="#AAABAD"/>
</svg>
