<svg width="20" height="20" viewBox="0 0 20 20" fill="none" xmlns="http://www.w3.org/2000/svg">
<path d="M15.0003 9.16634H13.3337V10.833H15.0003V9.16634Z" fill="#185C98"/>
<path fill-rule="evenodd" clip-rule="evenodd" d="M16.667 15.833V13.333H17.5003C17.9606 13.333 18.3337 12.9599 18.3337 12.4997V7.49967C18.3337 7.03944 17.9606 6.66634 17.5003 6.66634H16.667V4.16634C16.667 3.7061 16.2939 3.33301 15.8337 3.33301H2.50033C2.04009 3.33301 1.66699 3.7061 1.66699 4.16634V15.833C1.66699 16.2932 2.04009 16.6663 2.50033 16.6663H15.8337C16.2939 16.6663 16.667 16.2932 16.667 15.833ZM15.0003 14.9997V13.333H12.5003C10.6594 13.333 9.16699 11.8406 9.16699 9.99967C9.16699 8.15873 10.6594 6.66634 12.5003 6.66634H15.0003V4.99967H3.33366V14.9997H15.0003ZM12.5003 8.33301C11.5799 8.33301 10.8337 9.0792 10.8337 9.99967C10.8337 10.9201 11.5799 11.6663 12.5003 11.6663H16.667V8.33301H12.5003Z" fill="#185C98"/>
</svg>
