<svg width="20" height="20" viewBox="0 0 20 20" fill="none" xmlns="http://www.w3.org/2000/svg">
<path d="M7.5 12.5C7.5 12.0398 7.8731 11.6667 8.33333 11.6667H11.6667C12.1269 11.6667 12.5 12.0398 12.5 12.5V15.8333H15.8333V10.3452L10 4.51184L4.16667 10.3452V15.8333H7.5V12.5ZM9.16667 13.3333V16.6667C9.16667 17.1269 8.79357 17.5 8.33333 17.5H3.33333C2.8731 17.5 2.5 17.1269 2.5 16.6667V10C2.5 9.77899 2.5878 9.56702 2.74408 9.41074L9.41074 2.74408C9.73618 2.41864 10.2638 2.41864 10.5893 2.74408L17.2559 9.41074C17.4122 9.56702 17.5 9.77899 17.5 10V16.6667C17.5 17.1269 17.1269 17.5 16.6667 17.5H11.6667C11.2064 17.5 10.8333 17.1269 10.8333 16.6667V13.3333H9.16667Z" fill="#AAABAD"/>
</svg>
