<svg width="20" height="20" viewBox="0 0 20 20" fill="none" xmlns="http://www.w3.org/2000/svg">
<path fill-rule="evenodd" clip-rule="evenodd" d="M15.0615 1.66706C15.3605 1.67097 15.6345 1.83484 15.7795 2.09644L17.3956 5.01311C17.4641 5.13671 17.5 5.27569 17.5 5.417V10.0003V15.8337C17.5 17.2144 16.3807 18.3337 15 18.3337C13.6193 18.3337 12.5 17.2144 12.5 15.8337L12.5 5.417C12.5 5.26831 12.5398 5.12233 12.6152 4.9942L14.3324 2.07753C14.4842 1.8198 14.7624 1.66316 15.0615 1.66706ZM14.1667 15.0003V15.8337C14.1667 16.2939 14.5398 16.667 15 16.667C15.4602 16.667 15.8333 16.2939 15.8333 15.8337V15.0003H14.1667ZM14.1667 13.3337H15.8333V10.0003V5.63244L15.0286 4.18011L14.1667 5.6441V13.3337ZM2.5 3.33365C2.5 2.87341 2.8731 2.50032 3.33333 2.50032H11.6667V4.16698H10.8333V5.83365H9.16667V4.16698H7.5V5.83365H5.83333V4.16698H4.16667V15.8337H10.8333V17.5003H3.33333C2.8731 17.5003 2.5 17.1272 2.5 16.667V3.33365ZM5.83333 9.16698H10.8333V10.8337H5.83333V9.16698ZM10.8333 12.5003H5.83333V14.167H10.8333V12.5003Z" fill="#185C98"/>
</svg>
