<svg width="20" height="20" viewBox="0 0 20 20" fill="none" xmlns="http://www.w3.org/2000/svg">
<path d="M10.8327 12.2921H1.66602C1.32435 12.2921 1.04102 12.0087 1.04102 11.6671V6.3504C1.04102 6.08374 1.20767 5.85038 1.44934 5.75872C1.69934 5.66705 1.97436 5.74208 2.14102 5.94208C2.64936 6.55041 3.44102 6.89207 4.22435 6.86707C4.89102 6.8504 5.50767 6.60042 5.97433 6.15875C6.191 5.97542 6.36601 5.75874 6.49934 5.51707C6.75767 5.0754 6.88268 4.59206 6.87435 4.10039C6.85768 3.33373 6.52437 2.63373 5.9577 2.1254C5.7577 1.9504 5.69102 1.67538 5.78268 1.43372C5.87435 1.19205 6.10769 1.02539 6.36603 1.02539H12.4993C12.841 1.02539 13.1243 1.30872 13.1243 1.65039V9.98372C13.1243 11.2671 12.0993 12.2921 10.8327 12.2921ZM2.29102 11.0421H10.8327C11.4077 11.0421 11.8743 10.5754 11.8743 10.0004V2.29207H7.65768C7.94935 2.83374 8.10768 3.44209 8.12435 4.07542C8.14102 4.80042 7.95767 5.51707 7.591 6.14207C7.391 6.5004 7.11601 6.84208 6.81601 7.09208C6.14934 7.72542 5.23267 8.10041 4.25767 8.12541C3.55767 8.15041 2.88269 7.97541 2.29936 7.65874V11.0421H2.29102Z" fill="#12B76A"/>
<path d="M15.8327 17.292H14.9993C14.6577 17.292 14.3743 17.0087 14.3743 16.667C14.3743 16.092 13.9077 15.6253 13.3327 15.6253C12.7577 15.6253 12.291 16.092 12.291 16.667C12.291 17.0087 12.0077 17.292 11.666 17.292H8.33268C7.99102 17.292 7.70768 17.0087 7.70768 16.667C7.70768 16.092 7.24102 15.6253 6.66602 15.6253C6.09102 15.6253 5.62435 16.092 5.62435 16.667C5.62435 17.0087 5.34102 17.292 4.99935 17.292H4.16602C2.44102 17.292 1.04102 15.892 1.04102 14.167V11.667C1.04102 11.3253 1.32435 11.042 1.66602 11.042H10.8327C11.4077 11.042 11.8743 10.5753 11.8743 10.0003V4.16699C11.8743 3.82533 12.1577 3.54199 12.4993 3.54199H14.0327C14.8577 3.54199 15.616 3.98367 16.0243 4.70034L17.4494 7.192C17.5577 7.38366 17.5577 7.62533 17.4494 7.817C17.341 8.00866 17.1327 8.12533 16.9077 8.12533H15.8327C15.716 8.12533 15.6243 8.21699 15.6243 8.33366V10.8337C15.6243 10.9503 15.716 11.042 15.8327 11.042H18.3327C18.6744 11.042 18.9577 11.3253 18.9577 11.667V14.167C18.9577 15.892 17.5577 17.292 15.8327 17.292ZM15.541 16.042H15.8327C16.866 16.042 17.7077 15.2003 17.7077 14.167V12.292H15.8327C15.0327 12.292 14.3743 11.6337 14.3743 10.8337V8.33366C14.3743 7.53366 15.0243 6.87533 15.8327 6.87533L14.941 5.317C14.7577 4.992 14.4077 4.79199 14.0327 4.79199H13.1243V10.0003C13.1243 11.267 12.0993 12.292 10.8327 12.292H2.29102V14.167C2.29102 15.2003 3.13268 16.042 4.16602 16.042H4.45766C4.73266 15.0837 5.61602 14.3753 6.66602 14.3753C7.71602 14.3753 8.59937 15.0837 8.87437 16.042H11.1327C11.4077 15.0837 12.291 14.3753 13.341 14.3753C14.391 14.3753 15.266 15.0837 15.541 16.042Z" fill="#12B76A"/>
<path d="M6.66667 18.9583C5.4 18.9583 4.375 17.9333 4.375 16.6667C4.375 15.4 5.4 14.375 6.66667 14.375C7.93333 14.375 8.95833 15.4 8.95833 16.6667C8.95833 17.9333 7.93333 18.9583 6.66667 18.9583ZM6.66667 15.625C6.09167 15.625 5.625 16.0917 5.625 16.6667C5.625 17.2417 6.09167 17.7083 6.66667 17.7083C7.24167 17.7083 7.70833 17.2417 7.70833 16.6667C7.70833 16.0917 7.24167 15.625 6.66667 15.625Z" fill="#12B76A"/>
<path d="M13.3327 18.9583C12.066 18.9583 11.041 17.9333 11.041 16.6667C11.041 15.4 12.066 14.375 13.3327 14.375C14.5993 14.375 15.6243 15.4 15.6243 16.6667C15.6243 17.9333 14.5993 18.9583 13.3327 18.9583ZM13.3327 15.625C12.7577 15.625 12.291 16.0917 12.291 16.6667C12.291 17.2417 12.7577 17.7083 13.3327 17.7083C13.9077 17.7083 14.3743 17.2417 14.3743 16.6667C14.3743 16.0917 13.9077 15.625 13.3327 15.625Z" fill="#12B76A"/>
<path d="M18.3333 12.2917H15.8333C15.0333 12.2917 14.375 11.6333 14.375 10.8333V8.33333C14.375 7.53333 15.0333 6.875 15.8333 6.875H16.9083C17.1333 6.875 17.3417 6.99167 17.45 7.19167L18.875 9.69167C18.925 9.78334 18.9583 9.89167 18.9583 10V11.6667C18.9583 12.0083 18.675 12.2917 18.3333 12.2917ZM15.8333 8.125C15.7167 8.125 15.625 8.21667 15.625 8.33333V10.8333C15.625 10.95 15.7167 11.0417 15.8333 11.0417H17.7083V10.1667L16.5416 8.125H15.8333Z" fill="#12B76A"/>
<path d="M4.15801 8.12467C3.00801 8.12467 1.92468 7.62465 1.19135 6.74965C1.07468 6.62465 0.949696 6.44966 0.841363 6.28299C0.449696 5.69132 0.233029 4.99133 0.216363 4.258C0.183029 3.04133 0.699706 1.89965 1.63304 1.12465C2.34137 0.541321 3.19133 0.224674 4.09133 0.208008C5.07467 0.216341 6.05804 0.541343 6.79137 1.19968C7.62471 1.93301 8.10803 2.95802 8.13303 4.07469C8.1497 4.79969 7.96635 5.51634 7.59968 6.14134C7.39968 6.49967 7.12469 6.84135 6.82469 7.09135C6.15802 7.72468 5.24135 8.09967 4.26635 8.12467C4.22468 8.12467 4.19135 8.12467 4.15801 8.12467ZM4.15801 1.45801C4.14135 1.45801 4.12468 1.45801 4.10801 1.45801C3.49968 1.46634 2.91633 1.69135 2.42467 2.09135C1.79133 2.61635 1.44135 3.39968 1.45802 4.22468C1.47469 4.72468 1.61636 5.19969 1.88303 5.59136C1.95803 5.70803 2.03301 5.81632 2.12468 5.91632C2.65801 6.54965 3.44969 6.883 4.22469 6.86633C4.89136 6.84967 5.50801 6.59969 5.97467 6.15802C6.19134 5.97469 6.36634 5.758 6.49968 5.51634C6.75801 5.07467 6.88302 4.59133 6.87469 4.09966C6.85802 3.33299 6.52471 2.633 5.95804 2.12466C5.45804 1.69966 4.82468 1.45801 4.15801 1.45801Z" fill="#12B76A"/>
<path d="M3.70807 5.62539C3.54973 5.62539 3.39972 5.56703 3.27472 5.45037L2.43304 4.6504C2.18304 4.40873 2.17475 4.01707 2.41641 3.76707C2.65808 3.51707 3.04974 3.50872 3.29974 3.75039L3.70807 4.14203L5.01641 2.8754C5.26641 2.63373 5.65807 2.64203 5.89974 2.89203C6.14141 3.14203 6.13306 3.53374 5.88306 3.77541L4.14137 5.45871C4.01637 5.56704 3.85807 5.62539 3.70807 5.62539Z" fill="#12B76A"/>
</svg>
